<svg width="30" height="30" viewBox="0 0 30 30" fill="none" xmlns="http://www.w3.org/2000/svg">
<mask id="mask0_0_19" style="mask-type:alpha" maskUnits="userSpaceOnUse" x="0" y="0" width="30" height="30">
<rect width="30" height="30" fill="#D9D9D9"/>
</mask>
<g mask="url(#mask0_0_19)">
<path d="M18.8883 23.8675C18.776 25.8924 17.0779 27.5 15 27.5C12.922 27.5 11.2239 25.8924 11.1116 23.8675H6.35045C4.91439 23.8675 3.75 22.7201 3.75 21.3036C3.75 19.8888 4.91354 18.7394 6.34713 18.7394C6.34532 18.7394 6.34622 13.6111 6.34622 13.6111C6.34622 9.9988 8.63344 6.8319 11.9712 5.60223V5.48955C11.9712 3.83903 13.3291 2.5 15 2.5C16.6726 2.5 18.0287 3.83811 18.0287 5.48955V5.60223C21.3665 6.83183 23.6537 9.99934 23.6537 13.6111V18.7388C25.0844 18.7394 26.25 19.8881 26.25 21.3035C26.25 22.7185 25.0847 23.8674 23.6496 23.8674L18.8883 23.8675ZM17.1528 23.8675H12.847C12.9557 24.9474 13.8781 25.7907 14.9999 25.7907C16.1217 25.7907 17.0441 24.9474 17.1527 23.8675H17.1528ZM13.0764 7.04092C10.1382 7.87797 8.0768 10.544 8.0768 13.6111V18.7388C8.0768 19.6826 7.30144 20.449 6.34705 20.449C5.86927 20.449 5.48083 20.8326 5.48083 21.3036C5.48083 21.7751 5.86926 22.1582 6.35037 22.1582H23.6494C24.1293 22.1582 24.5189 21.7739 24.5189 21.3036C24.5189 20.8332 24.1293 20.449 23.6527 20.449C22.6965 20.449 21.923 19.6852 21.923 18.7388V13.6111C21.923 10.545 19.8615 7.87797 16.9233 7.04092L16.298 6.86267V5.48999C16.298 4.78322 15.717 4.21003 14.9998 4.21003C14.2842 4.21003 13.7017 4.78414 13.7017 5.48999V6.86267L13.0764 7.04092Z" fill="#005226"/>
<circle cx="22.5" cy="7.5" r="3.4" fill="#FF0C00" stroke="#F4F6FC" stroke-width="0.7"/>
</g>
</svg>
