<svg width="60" height="60" viewBox="0 0 60 60" fill="none" xmlns="http://www.w3.org/2000/svg">
<mask id="mask0_0_333" style="mask-type:alpha" maskUnits="userSpaceOnUse" x="0" y="0" width="60" height="60">
<rect width="60" height="60" fill="#005226"/>
</mask>
<g mask="url(#mask0_0_333)">
<path d="M53.865 42.6329L49.0214 18.4465C47.9746 13.23 43.7715 9.37464 38.5607 8.8475L37.9279 8.83174C36.8498 6.58149 33.7405 5 29.9749 5C26.1547 5 23.0063 6.6287 21.9751 8.93403L18.2642 9.76017C14.6583 10.5573 11.8995 13.4561 11.2097 16.983C10.5762 20.1283 13.5044 5.59078 5.01452 47.7393C4.97547 47.9517 5.01452 48.1642 5.13955 48.3373C5.17078 48.3766 5.19424 48.4159 5.24111 48.4553C5.34267 48.5654 5.48329 48.6441 5.64732 48.6756L11.6472 49.7535C11.6941 49.7614 11.741 49.7692 11.78 49.7692C12.1472 49.7692 12.4675 49.5096 12.5456 49.1398C17.0008 27.7514 15.4608 35.1445 15.7956 33.5374V47.7078C15.7956 47.9832 15.944 48.2428 16.1784 48.3845C20.7642 51.1147 25.3578 52.4837 29.9124 52.4916C29.9202 52.4995 29.928 52.4995 29.9437 52.4916H29.9597C29.9741 52.4924 29.9864 52.5 30.001 52.5C30.0157 52.5 30.0279 52.4924 30.0424 52.4916H30.1077C34.6311 52.4601 39.1388 51.0832 43.5762 48.3766C43.8106 48.235 43.9512 47.9832 43.9512 47.6999L43.9043 33.624C44.2362 35.2242 42.6922 27.7805 47.2011 49.5175C47.3026 49.9901 47.7817 50.2016 48.0917 50.1391L54.3416 49.1241C54.7848 49.0603 55.0768 48.6001 54.9822 48.1878C53.7977 42.2735 53.9044 42.7121 53.865 42.6329ZM29.9764 19.0723L27.988 16.3877L27.9906 16.3851L28.5062 15.8579C28.8031 15.5511 28.8031 15.0711 28.514 14.7564L25.4828 11.5462C26.7015 10.9089 28.2875 10.5312 29.9749 10.5312C31.6624 10.5312 33.2483 10.901 34.4592 11.5462L31.428 14.7564C31.1389 15.0711 31.1389 15.5511 31.4358 15.8579L31.873 16.306L29.9764 19.0723ZM22.7642 10.9483C23.0513 11.2523 27.0017 15.4356 26.8656 15.2914L26.5062 15.6612L24.0844 18.1318L21.6001 13.1827C21.6426 13.1012 22.8066 10.8667 22.7642 10.9483ZM33.4436 15.6612L33.0764 15.2914C33.152 15.2114 37.2538 10.8679 37.1779 10.9483C37.2204 11.0298 38.418 13.3287 38.3419 13.1828L35.8576 18.1318L33.4436 15.6612ZM29.9749 6.57362C32.9749 6.57362 35.592 7.79316 36.4591 9.42186L35.5686 10.366C34.0686 9.46907 32.0999 8.95762 29.9749 8.95762C27.8422 8.95762 25.8735 9.47693 24.3735 10.366L23.4907 9.42973C24.35 7.79315 26.9672 6.57362 29.9749 6.57362ZM11.1706 48.0698L6.70982 47.2593L7.38168 43.9076L11.8894 44.6078L11.1706 48.0698ZM17.358 47.2515V25.9526C17.358 25.5514 17.0612 25.213 16.6627 25.1658C16.2565 25.1422 15.8971 25.394 15.8112 25.7874L12.2097 43.0657L7.69414 42.3654L12.7409 17.2899C13.3317 14.3332 15.6248 11.9523 18.6002 11.2944L21.1079 10.7437L20.0298 12.8051C19.9126 13.0333 19.9048 13.3008 20.022 13.529L23.1782 19.8234C23.2954 20.0516 23.5063 20.209 23.7563 20.2483C23.7954 20.2483 23.8344 20.2562 23.8735 20.2562C24.0844 20.2562 24.2876 20.1696 24.436 20.0201L26.8734 17.5259L26.8782 17.5211L29.2198 20.6827V50.9337C29.2189 50.9337 29.218 50.9338 29.2171 50.9337C25.3032 50.7999 21.3657 49.5804 17.358 47.2515ZM43.8653 25.7244C43.7871 25.331 43.4121 25.0636 43.0215 25.1029C42.6231 25.1501 42.3184 25.4884 42.3184 25.8897L42.3887 47.2593C38.5069 49.5563 34.6484 50.7836 30.7823 50.9335V20.6666L32.9901 17.4469L35.5061 20.0201C35.6545 20.1696 35.8576 20.2562 36.0685 20.2562C36.1076 20.2562 36.1467 20.2483 36.1857 20.2483C36.4357 20.209 36.6467 20.0516 36.7638 19.8234L39.92 13.529C40.0372 13.3008 40.0294 13.0333 39.9122 12.8051L38.6857 10.4526C43.0762 11.0112 46.5918 14.3158 47.4901 18.7612L52.1854 42.1608L47.4042 42.7903L43.8653 25.7244ZM47.7245 44.3403L52.4901 43.703L53.2948 47.6999L48.5839 48.4632L47.7245 44.3403Z" fill="#005226"/>
<path d="M33.3797 26.0186C32.8915 26.0186 32.4956 26.4172 32.4956 26.9089C32.4956 27.4007 32.8915 27.7994 33.3797 27.7994C33.868 27.7994 34.2638 27.4007 34.2638 26.9089C34.2638 26.4172 33.868 26.0186 33.3797 26.0186Z" fill="#005226"/>
<path d="M33.3797 30.6614C32.8915 30.6614 32.4956 31.06 32.4956 31.5518C32.4956 32.0435 32.8915 32.4422 33.3797 32.4422C33.868 32.4422 34.2638 32.0435 34.2638 31.5518C34.2638 31.06 33.868 30.6614 33.3797 30.6614Z" fill="#005226"/>
<path d="M33.3797 35.3042C32.8915 35.3042 32.4956 35.7029 32.4956 36.1946C32.4956 36.6864 32.8915 37.085 33.3797 37.085C33.868 37.085 34.2638 36.6864 34.2638 36.1946C34.2638 35.7029 33.868 35.3042 33.3797 35.3042Z" fill="#005226"/>
<path d="M33.3797 39.947C32.8915 39.947 32.4956 40.3457 32.4956 40.8375C32.4956 41.3292 32.8915 41.7278 33.3797 41.7278C33.868 41.7278 34.2638 41.3292 34.2638 40.8375C34.2638 40.3457 33.868 39.947 33.3797 39.947Z" fill="#005226"/>
<path d="M33.3797 44.59C32.8915 44.59 32.4956 44.9886 32.4956 45.4804C32.4956 45.9722 32.8915 46.3708 33.3797 46.3708C33.868 46.3708 34.2638 45.9722 34.2638 45.4804C34.2638 44.9886 33.868 44.59 33.3797 44.59Z" fill="#005226"/>
</g>
</svg>
