<svg width="60" height="60" viewBox="0 0 60 60" fill="none" xmlns="http://www.w3.org/2000/svg">
<mask id="mask0_0_343" style="mask-type:alpha" maskUnits="userSpaceOnUse" x="0" y="0" width="60" height="60">
<rect width="60" height="60" fill="#005226"/>
</mask>
<g mask="url(#mask0_0_343)">
<path d="M47.4049 49.9094L43.6261 38.6253C42.5571 35.1546 40.515 30.2992 38.2791 28.0371L36.2707 26.0054L37.9267 17.1923C38.1033 16.2539 38.0373 15.2798 37.7365 14.375L36.7902 11.5304L36.7642 6.10996C36.7642 5.49783 36.2662 5 35.654 5H34.9696C34.3577 5 33.8597 5.49783 33.8597 6.10996V11.1114C33.8597 11.1465 33.8328 11.1792 33.8181 11.185L29.2624 12.4142C28.9275 12.5038 28.5729 12.5045 28.238 12.4142L23.7074 11.1927C23.667 11.1792 23.6401 11.1465 23.6401 11.1114V6.10996C23.6401 5.49783 23.1421 5 22.5302 5H21.8458C21.2339 5 20.7359 5.49783 20.7359 6.10996V11.4469L19.7637 14.375C19.4628 15.2798 19.3968 16.2539 19.5734 17.1923L21.2291 26.0054L19.221 28.0371C16.9851 30.2992 14.943 35.1546 13.8776 38.6142L10.0952 49.9094C9.93181 50.397 9.98034 50.9334 10.2284 51.381C10.4747 51.8252 10.8962 52.1413 11.3845 52.2479C11.4946 52.2719 11.6147 52.2923 11.7263 52.3158C11.7954 52.7519 12.0815 53.1388 12.5177 53.3013C15.1983 54.2996 21.455 55 28.7499 55C36.0451 55 42.3016 54.2996 44.9824 53.3013C45.4186 53.1388 45.7045 52.7519 45.7737 52.3158C45.8852 52.2923 46.0052 52.2719 46.1153 52.2479C46.6036 52.1413 47.0248 51.8255 47.2714 51.3813C47.5195 50.9337 47.5683 50.3974 47.4049 49.9094ZM46.4655 50.9146C46.348 51.1269 46.1547 51.2716 45.9217 51.3225C45.8219 51.3443 45.7128 51.3628 45.6118 51.3841C40.9211 52.3761 34.9547 52.9244 28.7499 52.9244C22.5454 52.9244 16.5793 52.3761 11.8883 51.3841C11.7871 51.3628 11.678 51.3443 11.5781 51.3225C11.3451 51.2716 11.1518 51.1269 11.0342 50.9146C10.9167 50.7023 10.8938 50.4476 10.9712 50.2156L14.7573 38.9093C15.7946 35.5419 17.7568 30.85 19.8728 28.7099L21.4395 27.1248L21.8104 26.7492H22.3118H35.1882H35.6894L36.0605 27.1246L37.6273 28.7099C39.7433 30.85 41.7055 35.5419 42.7464 38.9204L46.5289 50.2156C46.6063 50.4476 46.5834 50.7023 46.4655 50.9146ZM20.4826 17.0136C20.3367 16.2364 20.391 15.4292 20.6403 14.6794L21.5688 11.8797C21.6306 11.7423 21.662 11.5966 21.662 11.4469V6.10996C21.662 6.01969 21.7446 5.94638 21.8458 5.94638H22.5302C22.6315 5.94638 22.7141 6.01969 22.7141 6.10996V11.1114C22.7141 11.5572 22.9977 11.9515 23.4454 12.1L28.002 13.3291C28.4909 13.461 29.0089 13.461 29.4984 13.3291L34.08 12.0923C34.5021 11.9515 34.7858 11.5572 34.7858 11.1114V6.10996C34.7858 6.01969 34.8684 5.94638 34.9696 5.94638H35.654C35.7556 5.94638 35.8382 6.01969 35.8382 6.10996V11.4469C35.8382 11.5877 35.8656 11.7247 35.9198 11.8544L36.8598 14.6794C37.1091 15.4292 37.1634 16.2364 37.0175 17.0136L35.6398 24.3454H21.8602L20.4826 17.0136Z" fill="#005226"/>
</g>
</svg>
