<svg width="60" height="60" viewBox="0 0 60 60" fill="none" xmlns="http://www.w3.org/2000/svg">
<mask id="mask0_0_346" style="mask-type:alpha" maskUnits="userSpaceOnUse" x="0" y="0" width="60" height="60">
<rect width="60" height="60" fill="#005226"/>
</mask>
<g mask="url(#mask0_0_346)">
<path d="M22.9314 51.5807C22.8142 51.5807 22.697 51.5256 22.6267 51.4234C19.931 47.8234 14.946 46.7386 14.8992 46.7229C14.6882 46.6758 14.5554 46.4714 14.6022 46.267C14.6491 46.0548 14.8523 45.9212 15.0554 45.9683C15.2742 46.0155 20.3686 47.1238 23.2439 50.9597C23.3689 51.1326 23.3377 51.3763 23.1658 51.502C23.0955 51.5571 23.0095 51.5807 22.9314 51.5807Z" fill="#005226"/>
<path d="M36.9878 51.4628C36.9096 51.4628 36.8237 51.4392 36.7534 51.3842C36.5815 51.2584 36.5502 51.0147 36.6752 50.8418C39.5506 47.0295 44.7231 46.0077 44.9419 45.9684C45.1528 45.9291 45.3482 46.0705 45.3872 46.2749C45.4263 46.4871 45.2856 46.6837 45.0825 46.7308C45.0278 46.7387 39.9725 47.7369 37.2847 51.3134C37.2144 51.4156 37.105 51.4628 36.9878 51.4628Z" fill="#005226"/>
<path d="M20.2904 54.9291C20.1654 54.9291 20.0404 54.8663 19.9701 54.7562C19.8529 54.5754 19.9076 54.3396 20.0873 54.2217C21.5328 53.2785 22.7985 51.109 24.08 47.391C24.5253 46.0941 25.7208 45.2216 27.0491 45.2216H32.706C33.964 45.2216 35.0891 45.984 35.5892 47.1631C36.8159 50.0793 38.1911 52.9562 39.9569 54.2296C40.1288 54.3553 40.1679 54.599 40.0428 54.7719C39.9178 54.9449 39.6756 54.9842 39.5037 54.8584C37.5816 53.475 36.1439 50.488 34.8781 47.4696C34.5031 46.5735 33.6514 45.9997 32.706 45.9997H27.0491C26.0489 45.9997 25.1426 46.66 24.8066 47.6426C23.4705 51.5335 22.1031 53.8287 20.5092 54.8663C20.4389 54.9134 20.3607 54.9291 20.2904 54.9291Z" fill="#005226"/>
<path d="M39.0818 55H20.9155C20.2123 55 19.5325 54.7799 18.9543 54.3712C17.7901 53.5458 16.8056 52.3904 16.0086 50.9283C14.9382 48.9554 14.4069 46.5815 14.485 44.074L15.157 20.8544L6.91378 19.3767C6.75751 19.3452 6.64031 19.2273 6.60124 19.078L5.0073 11.5477C4.97605 11.3826 5.04637 11.2176 5.19482 11.1311L15.7977 5.05502C15.8524 5.02358 15.9149 5 15.9852 5H15.993H21.5718C21.6421 5 21.7047 5.01572 21.7672 5.05502C27.3772 8.34067 32.8935 8.34067 38.613 5.05502C38.6677 5.02358 38.738 5.00786 38.8005 5.00786H44.0042C44.2152 5.00786 44.3793 5.17293 44.3871 5.38516L45.5122 44.0819C45.5826 46.5894 45.0591 48.9632 43.9886 50.9362C43.1838 52.4218 42.2228 53.5458 41.0429 54.379C40.4648 54.7878 39.785 55 39.0818 55ZM15.9383 20.5557L15.2586 44.1055C15.1882 46.4793 15.6883 48.7117 16.6884 50.5667C17.4307 51.9423 18.3214 52.9799 19.3997 53.7423C19.845 54.0568 20.3686 54.2297 20.9155 54.2297H39.0896C39.6365 54.2297 40.16 54.0646 40.6054 53.7423C41.6837 52.9799 42.5666 51.9423 43.3167 50.5667C44.3246 48.7117 44.8168 46.4793 44.7465 44.1055L43.6292 5.77818H38.9021C33.0654 9.09527 27.1975 9.09527 21.4702 5.77818H16.3681L15.9383 20.5321C15.9383 20.54 15.9383 20.5479 15.9383 20.5557ZM7.29664 18.6614L15.1804 20.0762L15.5867 6.07687L5.8199 11.6656L7.29664 18.6614Z" fill="#005226"/>
<path d="M44.4496 21.1139C44.2699 21.1139 44.1058 20.9803 44.0746 20.7916C44.0355 20.5794 44.1761 20.3829 44.3871 20.3436L52.7084 18.8423L54.193 11.7836L43.8089 5.72326C43.6214 5.61321 43.5589 5.3774 43.6683 5.19661C43.7777 5.00796 44.0121 4.94508 44.1918 5.05513L54.8103 11.257C54.9509 11.3434 55.029 11.5085 54.99 11.6736L53.396 19.2589C53.3648 19.4161 53.2397 19.534 53.0913 19.5576L44.5121 21.1061C44.4965 21.1061 44.4731 21.1139 44.4496 21.1139Z" fill="#005226"/>
<path d="M30.1432 15.3756C28.1039 15.3756 26.0489 14.7468 24.3847 13.5284C21.8219 11.6498 20.6576 8.66282 21.189 5.33787C21.2202 5.12564 21.4234 4.98416 21.6265 5.0156C21.8375 5.04704 21.9781 5.25141 21.9469 5.45578C21.4546 8.5292 22.4782 11.1703 24.83 12.8996C27.471 14.8411 31.1667 15.1555 34.0265 13.6935C36.8549 12.2472 38.4098 9.29952 38.4098 5.40076C38.4098 5.18853 38.5817 5.0156 38.7927 5.0156C39.0036 5.0156 39.1755 5.18853 39.1755 5.40076C39.1755 9.61393 37.4722 12.8053 34.3781 14.3852C33.081 15.0455 31.6199 15.3756 30.1432 15.3756Z" fill="#005226"/>
<path d="M30.0182 24.2738C28.7133 24.2738 27.6507 23.2048 27.6507 21.8921C27.6507 20.5794 28.7133 19.5104 30.0182 19.5104C31.323 19.5104 32.3856 20.5794 32.3856 21.8921C32.3856 23.2048 31.323 24.2738 30.0182 24.2738ZM30.0182 20.2807C29.1353 20.2807 28.4164 21.0039 28.4164 21.8921C28.4164 22.7803 29.1353 23.5035 30.0182 23.5035C30.9011 23.5035 31.6199 22.7803 31.6199 21.8921C31.6199 21.0039 30.9011 20.2807 30.0182 20.2807Z" fill="#005226"/>
<path d="M25.627 25.1226C25.4239 25.1226 25.2129 25.099 25.0019 25.0518C24.5566 24.9496 24.1737 24.6195 23.9862 24.1636C23.2127 22.2928 23.2986 20.7129 24.244 19.3452C24.6191 18.7242 25.1348 18.5513 25.4942 18.5198C26.924 18.4098 28.5492 20.2177 28.729 20.4221C28.8696 20.5871 28.854 20.8308 28.6899 20.9644C28.5258 21.1059 28.2914 21.0902 28.1508 20.9251C27.7366 20.4456 26.4552 19.2273 25.5645 19.2823C25.291 19.3059 25.0723 19.4552 24.8925 19.7539C24.0956 20.9094 24.0331 22.2457 24.6972 23.857C24.791 24.0771 24.9707 24.2422 25.166 24.2894C26.1505 24.5016 27.0959 24.0378 28.1508 22.8352C28.2914 22.678 28.5336 22.6623 28.6899 22.8038C28.8462 22.9452 28.8618 23.1889 28.7211 23.3461C27.6898 24.5409 26.6662 25.1226 25.627 25.1226Z" fill="#005226"/>
<path d="M34.4093 25.1226C33.3623 25.1226 32.3466 24.5409 31.3074 23.354C31.1668 23.1968 31.1824 22.9452 31.3386 22.8116C31.4949 22.6701 31.7371 22.6858 31.8778 22.8431C32.9326 24.0536 33.8858 24.5173 34.8625 24.2972C35.0579 24.2501 35.2454 24.0929 35.3313 23.8649C35.9955 22.2535 35.933 20.9173 35.1516 19.7775C34.9563 19.4552 34.7453 19.3059 34.464 19.2823C33.5733 19.2273 32.2919 20.4378 31.8778 20.9251C31.7371 21.0902 31.4949 21.1059 31.3386 20.9644C31.1824 20.8229 31.1589 20.5793 31.2996 20.4221C31.4793 20.2177 33.0889 18.4098 34.5343 18.5198C34.8938 18.5513 35.4095 18.7242 35.8001 19.3609C36.7377 20.7129 36.8159 22.2928 36.0502 24.1636C35.8626 24.6195 35.4798 24.9575 35.0344 25.0518C34.8234 25.099 34.6125 25.1226 34.4093 25.1226Z" fill="#005226"/>
<path d="M20.6342 28.6127C20.6107 28.6127 20.5873 28.6127 20.5638 28.6049C20.3529 28.5656 20.2201 28.3612 20.2591 28.1568C20.6732 25.9245 21.8999 23.9043 23.7127 22.4502C23.8768 22.3165 24.119 22.348 24.2518 22.5131C24.3846 22.6781 24.3534 22.9218 24.1893 23.0554C22.5172 24.3838 21.3921 26.2467 21.017 28.2904C20.978 28.4791 20.8139 28.6127 20.6342 28.6127Z" fill="#005226"/>
<path d="M30.0182 39.4599C25.1348 39.4599 20.9155 35.9463 20.2045 31.2772C20.1732 31.065 20.3139 30.8685 20.5248 30.837C20.7358 30.8056 20.9311 30.9471 20.9624 31.1593C21.6187 35.4511 25.5098 38.6817 30.0104 38.6817C34.5031 38.6817 38.3004 35.5847 39.0349 31.3086C39.074 31.0964 39.2693 30.9549 39.4803 30.9942C39.6912 31.0335 39.8319 31.23 39.7928 31.4423C39.0036 36.0878 34.8938 39.4599 30.0182 39.4599Z" fill="#005226"/>
<path d="M39.4021 28.6284C39.2224 28.6284 39.0583 28.4948 39.0271 28.314C38.652 26.2625 37.5269 24.3995 35.8548 23.0554C35.6907 22.9218 35.6595 22.6781 35.7923 22.5131C35.9251 22.348 36.1674 22.3165 36.3314 22.4502C38.152 23.9043 39.3787 25.9402 39.785 28.1725C39.8241 28.3848 39.6834 28.5813 39.4725 28.6206C39.449 28.6284 39.4256 28.6284 39.4021 28.6284Z" fill="#005226"/>
<path d="M19.7513 31.8904C18.6886 31.8904 17.8214 30.9079 17.8214 29.7052C17.8214 28.5026 18.6886 27.52 19.7513 27.52C20.1576 27.52 20.5404 27.6615 20.8686 27.9209C21.0327 28.0545 21.0639 28.2982 20.9311 28.4633C20.7983 28.6283 20.5561 28.6598 20.392 28.5262C20.1966 28.3768 19.9779 28.2903 19.7513 28.2903C19.1106 28.2903 18.5949 28.9192 18.5949 29.6974C18.5949 30.4755 19.1184 31.1122 19.7513 31.1122C19.9622 31.1122 20.1732 31.0415 20.3529 30.9079C20.5248 30.7821 20.767 30.8135 20.892 30.9865C21.0171 31.1594 20.9858 31.4031 20.8139 31.5288C20.5014 31.7646 20.1341 31.8904 19.7513 31.8904Z" fill="#005226"/>
<path d="M40.3397 32.0711C39.9256 32.0711 39.5271 31.9375 39.1911 31.6859C39.0192 31.5602 38.9802 31.3165 39.1052 31.1436C39.2302 30.9706 39.4724 30.9313 39.6443 31.0571C39.8475 31.2065 40.0897 31.2929 40.3397 31.2929C41.0586 31.2929 41.6524 30.6248 41.6524 29.7994C41.6524 28.9741 41.0664 28.306 40.3397 28.306C40.0897 28.306 39.8397 28.3924 39.6287 28.5496C39.4568 28.6754 39.2146 28.6361 39.0896 28.471C38.9646 28.2981 39.0036 28.0544 39.1677 27.9287C39.5115 27.6693 39.9178 27.5356 40.3397 27.5356C41.4883 27.5356 42.4181 28.5496 42.4181 29.7994C42.4259 31.0571 41.4883 32.0711 40.3397 32.0711Z" fill="#005226"/>
<path d="M28.0335 28.9034C27.8226 28.9034 27.6507 28.7305 27.6507 28.5183C27.6507 27.9209 27.1663 27.4414 26.5802 27.4414C25.9864 27.4414 25.5098 27.9287 25.5098 28.5183C25.5098 28.7305 25.3379 28.9034 25.1269 28.9034C24.916 28.9034 24.7441 28.7305 24.7441 28.5183C24.7441 27.4964 25.5723 26.6632 26.5881 26.6632C27.6038 26.6632 28.432 27.4964 28.432 28.5183C28.4164 28.7305 28.2445 28.9034 28.0335 28.9034Z" fill="#005226"/>
<path d="M35.0266 28.9034C34.8156 28.9034 34.6437 28.7305 34.6437 28.5183C34.6437 27.9209 34.1593 27.4414 33.5733 27.4414C32.9795 27.4414 32.5028 27.9287 32.5028 28.5183C32.5028 28.7305 32.3309 28.9034 32.12 28.9034C31.909 28.9034 31.7371 28.7305 31.7371 28.5183C31.7371 27.4964 32.5653 26.6632 33.5811 26.6632C34.5968 26.6632 35.4251 27.4964 35.4251 28.5183C35.4094 28.7305 35.2375 28.9034 35.0266 28.9034Z" fill="#005226"/>
<path d="M30.0963 34.6257C28.4399 34.6257 27.0959 33.3052 27.0959 31.6859C27.0959 31.4737 27.2678 31.3008 27.4788 31.3008C27.6898 31.3008 27.8617 31.4737 27.8617 31.6859C27.8617 32.8807 28.8618 33.8554 30.0885 33.8554C31.3152 33.8554 32.3231 32.8807 32.3231 31.6859C32.3231 31.4737 32.495 31.3008 32.706 31.3008C32.917 31.3008 33.0889 31.4737 33.0889 31.6859C33.0967 33.3052 31.745 34.6257 30.0963 34.6257Z" fill="#005226"/>
</g>
</svg>
